HIERARCHY
ROOT Hips
{
  OFFSET 5.80788e-005 67.184 3.4734
  CHANNELS 6 Xposition Yposition Zposition Zrotation Xrotation Yrotation
  JOINT Chest
  {
    OFFSET 0 8.7983 -4.7612
    CHANNELS 3 Zrotation Xrotation Yrotation
    JOINT Chest2
    {
      OFFSET 0 8.0291 0.4195
      CHANNELS 3 Zrotation Xrotation Yrotation
      JOINT Chest3
      {
        OFFSET 0 9.9351 -2.2114
        CHANNELS 3 Zrotation Xrotation Yrotation
        JOINT Neck
        {
          OFFSET 0 22.3885 -0.4656
          CHANNELS 3 Zrotation Xrotation Yrotation
          JOINT Head
          {
            OFFSET -0.0001 12.643 3.4389
            CHANNELS 3 Zrotation Xrotation Yrotation
            End Site
            {
              OFFSET 0.0001 17.6655 0.5274
            }
          }
        }
        JOINT LeftCollar
        {
          OFFSET 2.2603 21.606 7.4023
          CHANNELS 3 Zrotation Xrotation Yrotation
          JOINT LeftShoulder
          {
            OFFSET 13.5163 -1.1332 -5.0146
            CHANNELS 3 Zrotation Xrotation Yrotation
            JOINT LeftElbow
            {
              OFFSET -0.0995 -28.05 -0.2431
              CHANNELS 3 Zrotation Xrotation Yrotation
              JOINT LeftWrist
              {
                OFFSET 0.0679 -23.3996 -0.1402
                CHANNELS 3 Zrotation Xrotation Yrotation
                JOINT LeftFinger1
                {
                  OFFSET 0.7932 -9.069 2.5189
                  CHANNELS 3 Zrotation Xrotation Yrotation
                  JOINT LeftFinger11
                  {
                    OFFSET -0.8272 -3.3923 0.5977
                    CHANNELS 3 Zrotation Xrotation Yrotation
                    JOINT LeftFinger12
                    {
                      OFFSET -0.5649 -2.3158 0.4082
                      CHANNELS 3 Zrotation Xrotation Yrotation
                      End Site
                      {
                        OFFSET -0.4919 -1.6479 0.2673
                      }
                    }
                  }
                }
                JOINT LeftFinger2
                {
                  OFFSET 0.9159 -9.2044 0.2193
                  CHANNELS 3 Zrotation Xrotation Yrotation
                  JOINT LeftFinger21
                  {
                    OFFSET 0.0117 -4.1944 -0.0248
                    CHANNELS 3 Zrotation Xrotation Yrotation
                    JOINT LeftFinger22
                    {
                      OFFSET 0.0071 -2.3249 -0.0142
                      CHANNELS 3 Zrotation Xrotation Yrotation
                      End Site
                      {
                        OFFSET -0.1475 -2.0882 0.0028
                      }
                    }
                  }
                }
                JOINT LeftFinger3
                {
                  OFFSET 0.6113 -8.7231 -2.0637
                  CHANNELS 3 Zrotation Xrotation Yrotation
                  JOINT LeftFinger31
                  {
                    OFFSET -0.1927 -3.8059 -0.2383
                    CHANNELS 3 Zrotation Xrotation Yrotation
                    JOINT LeftFinger32
                    {
                      OFFSET -0.1091 -2.1688 -0.1362
                      CHANNELS 3 Zrotation Xrotation Yrotation
                      End Site
                      {
                        OFFSET -0.2358 -1.9176 -0.0906
                      }
                    }
                  }
                }
                JOINT LeftFinger4
                {
                  OFFSET -0.6151 -8.0947 -3.5641
                  CHANNELS 3 Zrotation Xrotation Yrotation
                  JOINT LeftFinger41
                  {
                    OFFSET -0.4882 -2.341 -0.6462
                    CHANNELS 3 Zrotation Xrotation Yrotation
                    JOINT LeftFinger42
                    {
                      OFFSET -0.3575 -1.7167 -0.4742
                      CHANNELS 3 Zrotation Xrotation Yrotation
                      End Site
                      {
                        OFFSET -0.4187 -1.5237 -0.3496
                      }
                    }
                  }
                }
                JOINT LeftFinger0
                {
                  OFFSET -1.42 -1.8761 1.4223
                  CHANNELS 3 Zrotation Xrotation Yrotation
                  JOINT LeftFinger01
                  {
                    OFFSET -1.1471 -3.4929 2.6334
                    CHANNELS 3 Zrotation Xrotation Yrotation
                    JOINT LeftFinger02
                    {
                      OFFSET -0.823 -2.3 1.6571
                      CHANNELS 3 Zrotation Xrotation Yrotation
                      End Site
                      {
                        OFFSET -0.5822 -1.6914 1.1582
                      }
                    }
                  }
                }
              }
            }
          }
        }
        JOINT RightCollar
        {
          OFFSET -2.2603 21.606 7.4023
          CHANNELS 3 Zrotation Xrotation Yrotation
          JOINT RightShoulder
          {
            OFFSET -13.5187 -1.1334 -5.0155
            CHANNELS 3 Zrotation Xrotation Yrotation
            JOINT RightElbow
            {
              OFFSET 0.0994 -28.0499 -0.2431
              CHANNELS 3 Zrotation Xrotation Yrotation
              JOINT RightWrist
              {
                OFFSET -0.0679 -23.3996 -0.1402
                CHANNELS 3 Zrotation Xrotation Yrotation
                JOINT RightFinger1
                {
                  OFFSET -0.7932 -9.0691 2.5189
                  CHANNELS 3 Zrotation Xrotation Yrotation
                  JOINT RightFinger11
                  {
                    OFFSET 0.8272 -3.3923 0.5977
                    CHANNELS 3 Zrotation Xrotation Yrotation
                    JOINT RightFinger12
                    {
                      OFFSET 0.565 -2.3158 0.4082
                      CHANNELS 3 Zrotation Xrotation Yrotation
                      End Site
                      {
                        OFFSET 0.4919 -1.6479 0.2673
                      }
                    }
                  }
                }
                JOINT RightFinger2
                {
                  OFFSET -0.916 -9.2044 0.2193
                  CHANNELS 3 Zrotation Xrotation Yrotation
                  JOINT RightFinger21
                  {
                    OFFSET -0.0117 -4.1944 -0.0248
                    CHANNELS 3 Zrotation Xrotation Yrotation
                    JOINT RightFinger22
                    {
                      OFFSET -0.0071 -2.3249 -0.0142
                      CHANNELS 3 Zrotation Xrotation Yrotation
                      End Site
                      {
                        OFFSET 0.1475 -2.0882 0.0028
                      }
                    }
                  }
                }
                JOINT RightFinger3
                {
                  OFFSET -0.6113 -8.7231 -2.0637
                  CHANNELS 3 Zrotation Xrotation Yrotation
                  JOINT RightFinger31
                  {
                    OFFSET 0.1927 -3.8059 -0.2383
                    CHANNELS 3 Zrotation Xrotation Yrotation
                    JOINT RightFinger32
                    {
                      OFFSET 0.1091 -2.1688 -0.1362
                      CHANNELS 3 Zrotation Xrotation Yrotation
                      End Site
                      {
                        OFFSET 0.2358 -1.9176 -0.0906
                      }
                    }
                  }
                }
                JOINT RightFinger4
                {
                  OFFSET 0.6151 -8.0947 -3.564
                  CHANNELS 3 Zrotation Xrotation Yrotation
                  JOINT RightFinger41
                  {
                    OFFSET 0.4882 -2.341 -0.6462
                    CHANNELS 3 Zrotation Xrotation Yrotation
                    JOINT RightFinger42
                    {
                      OFFSET 0.3574 -1.7166 -0.4742
                      CHANNELS 3 Zrotation Xrotation Yrotation
                      End Site
                      {
                        OFFSET 0.4187 -1.5237 -0.3496
                      }
                    }
                  }
                }
                JOINT RightFinger0
                {
                  OFFSET 1.4199 -1.8761 1.4221
                  CHANNELS 3 Zrotation Xrotation Yrotation
                  JOINT RightFinger01
                  {
                    OFFSET 1.1472 -3.4929 2.6336
                    CHANNELS 3 Zrotation Xrotation Yrotation
                    JOINT RightFinger02
                    {
                      OFFSET 0.8229 -2.3 1.6571
                      CHANNELS 3 Zrotation Xrotation Yrotation
                      End Site
                      {
                        OFFSET 0.5822 -1.6914 1.1582
                      }
                    }
                  }
                }
              }
            }
          }
        }
      }
    }
  }
  JOINT RightHip
  {
    OFFSET -9.412 3.9771 -0.7758
    CHANNELS 3 Zrotation Xrotation Yrotation
    JOINT RightKnee
    {
      OFFSET -0.7531 -40.938 0
      CHANNELS 3 Zrotation Xrotation Yrotation
      JOINT RightAnkle
      {
        OFFSET 0 -40.1986 0
        CHANNELS 3 Zrotation Xrotation Yrotation
        JOINT RightToe
        {
          OFFSET 0 -4.4182 9.239
          CHANNELS 3 Zrotation Xrotation Yrotation
          End Site
          {
            OFFSET 0 0 6.1981
          }
        }
      }
    }
  }
  JOINT LeftHip
  {
    OFFSET 9.4119 3.9773 -0.7758
    CHANNELS 3 Zrotation Xrotation Yrotation
    JOINT LeftKnee
    {
      OFFSET 0.7532 -40.9383 0
      CHANNELS 3 Zrotation Xrotation Yrotation
      JOINT LeftAnkle
      {
        OFFSET 0 -40.1986 0
        CHANNELS 3 Zrotation Xrotation Yrotation
        JOINT LeftToe
        {
          OFFSET 0 -4.4182 9.239
          CHANNELS 3 Zrotation Xrotation Yrotation
          End Site
          {
            OFFSET 0 0 6.1981
          }
        }
      }
    }
  }
}
MOTION
Frames:	5
Frame Time:	0.0333333
-75.6601 4.32621 7.84137 -180 -85.9956 -180 -0.416722 2.68032 -0.165168 -0.827056 5.36173 -0.311302 -0.827057 5.36174 -0.311303 -9.91536e-007 28.997 -6.23827e-007 5.01387 29.5919 -2.50963 18.2992 3.80143 -11.1444 127.575 14.9038 5.49265 -132.181 -59.8195 -120.039 -36.6106 -3.29331 49.7692 -3.95898e-006 2.6099e-005 4.87393e-006 6.75945e-006 -9.38319e-006 -4.25105e-006 -3.58514e-006 1.19181e-005 1.16805e-005 -3.95898e-006 2.6099e-005 4.87393e-006 -0.012833 0.00232734 8.69827e-005 3.18055e-015 3.18055e-015 -3.97569e-015 -3.95898e-006 2.6099e-005 4.87393e-006 -0.0160058 0.00296922 0.000854307 3.18055e-015 -4.77083e-015 -6.36111e-015 -3.95898e-006 2.6099e-005 4.87393e-006 -0.0125747 0.0031092 0.00282326 -3.18055e-015 -3.18055e-015 3.18055e-015 -3.95898e-006 2.6099e-005 4.87393e-006 6.75945e-006 -9.38319e-006 -4.25105e-006 -3.58514e-006 1.19181e-005 1.16805e-005 -21.0598 3.3663 7.47213 -122.775 9.001 -8.44985 100.126 -65.0004 91.0833 38.3655 -11.5248 -43.5801 1.06447e-005 -3.41734e-006 3.221e-006 2.64834e-031 1.59028e-015 -9.54166e-015 9.54166e-015 4.77083e-015 -3.18055e-015 1.06447e-005 -3.41734e-006 3.221e-006 0.013018 0.00234396 -9.04195e-005 1.32417e-031 4.77083e-015 -1.59028e-015 1.06447e-005 -3.41734e-006 3.221e-006 0.0163201 0.00304181 -0.000882139 -3.18055e-015 -3.18055e-015 6.36111e-015 1.06447e-005 -3.41734e-006 3.221e-006 0.0146118 0.0036892 -0.00327204 3.97252e-031 4.77083e-015 -4.77083e-015 1.06447e-005 -3.41734e-006 3.221e-006 2.64834e-031 1.59028e-015 -9.54166e-015 9.54166e-015 4.77083e-015 -3.18055e-015 -12.2718 -30.1881 -7.50718 158.912 65.3599 -164.598 12.7786 7.44719 -2.2079 -8.39894e-006 2.2631e-006 4.39591e-006 15.2168 -36.5216 14.6162 171.737 42.1974 -172.072 13.8312 -0.91818 15.7537 -8.41985e-007 -1.01325e-006 -4.24802e-008 
-75.6599 4.32639 7.84142 -180 -85.9956 -180 -0.403118 2.71443 -0.163683 -0.799808 5.42993 -0.308739 -0.799809 5.42991 -0.308739 -3.46298e-006 28.9971 -1.69131e-006 4.72949 29.0021 -2.34598 18.5544 3.61515 -10.9752 127.238 14.7689 5.50311 -130.766 -60.2161 -118.802 -36.5133 -3.92863 49.2832 -3.18055e-015 -1.59028e-015 -0 8.82781e-032 6.36111e-015 -7.95139e-016 -3.18055e-015 0 5.56597e-015 -3.18055e-015 -1.59028e-015 -0 -0.012819 0.00232751 8.9539e-005 1.27222e-014 1.59028e-015 1.59028e-015 -3.18055e-015 -1.59028e-015 -0 -0.0160055 0.00298795 0.000863827 3.18055e-015 -3.18055e-015 7.95139e-016 -3.18055e-015 -1.59028e-015 -0 -0.0125717 0.00313541 0.00282611 6.36111e-015 6.36111e-015 6.36111e-015 -3.18055e-015 -1.59028e-015 -0 8.82781e-032 6.36111e-015 -7.95139e-016 -3.18055e-015 0 5.56597e-015 -21.2155 3.21497 7.20713 -122.659 9.00815 -8.44723 100.124 -65.0005 91.0825 38.2852 -11.7133 -43.3687 -4.51771e-006 -1.02029e-005 4.42268e-006 4.51771e-006 1.06806e-005 -4.42268e-006 6.36111e-015 6.36111e-015 -1.59028e-015 -4.51771e-006 -1.02029e-005 4.42268e-006 0.0129569 0.00232059 -9.05597e-005 9.54166e-015 -6.36111e-015 1.59028e-015 -4.51771e-006 -1.02029e-005 4.42268e-006 0.0163426 0.00303888 -0.000881572 2.64834e-031 -4.77083e-015 3.18055e-015 -4.51771e-006 -1.02029e-005 4.42268e-006 0.0145688 0.00367505 -0.0032658 1.23589e-030 1.11319e-014 -6.36111e-015 -4.51771e-006 -1.02029e-005 4.42268e-006 4.51771e-006 1.06806e-005 -4.42268e-006 6.36111e-015 6.36111e-015 -1.59028e-015 -12.8179 -30.0612 -8.09556 158.91 65.3613 -164.596 12.2375 7.45012 -1.86998 2.18663e-015 -3.18055e-015 -1.59028e-015 15.6533 -36.527 14.9581 171.737 42.196 -172.08 14.1744 -0.895207 15.58 -5.88852e-007 2.95242e-007 3.43451e-006 
-75.6597 4.32655 7.84146 180 -85.9956 180 -0.390876 2.74516 -0.162313 -0.775292 5.49133 -0.306377 -0.775292 5.49136 -0.306377 -2.21578e-006 28.997 -1.15728e-006 4.47639 28.4704 -2.20242 18.7845 3.44806 -10.8221 126.94 14.6495 5.51053 -129.465 -60.5576 -117.659 -36.4307 -4.50169 48.8462 -3.06416e-006 8.80624e-006 -2.62019e-006 3.18055e-015 0 3.18055e-015 3.06416e-006 2.13423e-007 2.6202e-006 -3.06416e-006 8.80624e-006 -2.62019e-006 -0.0127758 0.00231535 8.68932e-005 5.16852e-006 -3.27532e-006 -7.96543e-006 -3.06416e-006 8.80624e-006 -2.62019e-006 -0.0160724 0.00298706 0.000862345 8.35585e-007 1.47618e-005 -9.89739e-006 -3.06416e-006 8.80624e-006 -2.62019e-006 -0.0125974 0.00312201 0.00283393 2.68626e-006 -7.79487e-006 -4.1848e-006 -3.06416e-006 8.80624e-006 -2.62019e-006 3.18055e-015 0 3.18055e-015 3.06416e-006 2.13423e-007 2.6202e-006 -21.3562 3.07939 6.96822 -122.56 9.01733 -8.44408 100.132 -65.0002 91.0866 38.2135 -11.8832 -43.1785 -1.59028e-014 -3.18055e-015 -4.77083e-015 3.18055e-015 -1.59028e-015 6.36111e-015 -5.71791e-006 2.90661e-006 -3.79245e-006 -1.59028e-014 -3.18055e-015 -4.77083e-015 0.0129573 0.00231569 -9.37532e-005 -7.84106e-006 -5.34537e-006 1.26311e-005 -1.59028e-014 -3.18055e-015 -4.77083e-015 0.016325 0.0030309 -0.000882476 -4.50799e-006 -7.34104e-007 4.43228e-006 -1.59028e-014 -3.18055e-015 -4.77083e-015 0.0145506 0.00366346 -0.00325698 6.03312e-006 1.60522e-005 -2.93685e-006 -1.59028e-014 -3.18055e-015 -4.77083e-015 3.18055e-015 -1.59028e-015 6.36111e-015 -5.71791e-006 2.90661e-006 -3.79245e-006 -13.3077 -29.9429 -8.62345 158.909 65.3625 -164.595 11.7504 7.4499 -1.56578 -6.55989e-015 0 3.18055e-015 16.0462 -36.53 15.2657 171.738 42.1945 -172.088 14.4833 -0.875559 15.4236 1.19271e-015 -2.38542e-015 -9.54166e-015 
-75.6595 4.32671 7.8415 -180 -85.9956 -180 -0.378638 2.77591 -0.160911 -0.750784 5.55282 -0.303965 -0.750784 5.5528 -0.303965 -2.76228e-006 28.997 -1.96677e-006 4.22595 27.9379 -2.06218 19.015 3.28168 -10.6683 126.636 14.527 5.51906 -128.127 -60.8876 -116.483 -36.3522 -5.07577 48.4093 3.18055e-015 -4.77083e-015 7.95139e-016 -6.36111e-015 -4.77083e-015 -3.18055e-015 3.18055e-015 -3.18055e-015 -2.38542e-015 3.18055e-015 -4.77083e-015 7.95139e-016 -0.0128027 0.0023224 8.14529e-005 -3.18055e-015 -1.59028e-015 3.18055e-015 3.18055e-015 -4.77083e-015 7.95139e-016 -0.0160744 0.00299894 0.000853562 -6.36111e-015 1.59028e-015 -7.95139e-015 3.18055e-015 -4.77083e-015 7.95139e-016 -0.0125569 0.00312068 0.00280746 9.54166e-015 1.90833e-014 3.97569e-015 3.18055e-015 -4.77083e-015 7.95139e-016 -6.36111e-015 -4.77083e-015 -3.18055e-015 3.18055e-015 -3.18055e-015 -2.38542e-015 -21.4975 2.94438 6.72899 -122.455 9.02294 -8.44198 100.128 -65.0004 91.0845 38.1424 -12.0533 -42.9883 3.18055e-015 0 -1.59028e-015 -3.18055e-015 -7.95139e-015 -0 -3.18055e-015 -7.95139e-015 4.77083e-015 3.18055e-015 0 -1.59028e-015 0.0129689 0.00229704 -8.0988e-005 3.18055e-015 -1.59028e-015 -0 3.18055e-015 0 -1.59028e-015 0.0163501 0.00303453 -0.000867778 -0 0 3.18055e-015 3.18055e-015 0 -1.59028e-015 0.0145507 0.00364851 -0.0032464 7.16887e-006 -5.60382e-007 -3.64066e-006 3.18055e-015 0 -1.59028e-015 -3.18055e-015 -7.95139e-015 -0 -3.18055e-015 -7.95139e-015 4.77083e-015 -13.7956 -29.8212 -9.14957 158.909 65.3631 -164.594 11.2631 7.44705 -1.26153 3.21641e-006 3.37538e-007 1.52013e-006 16.4392 -36.5312 15.5735 171.738 42.1934 -172.095 14.7923 -0.856576 15.267 3.59577e-007 9.90435e-007 8.5372e-006 
-75.6594 4.32687 7.84154 180 -85.9956 180 -0.366405 2.80667 -0.159479 -0.726285 5.61429 -0.301503 -0.726285 5.6143 -0.301503 -4.43495e-006 28.9971 -2.87022e-006 3.97811 27.4047 -1.92519 19.2459 3.11584 -10.5139 126.337 14.4072 5.52537 -126.768 -61.2028 -115.282 -36.278 -5.65072 47.9725 -3.18055e-015 -1.59028e-015 -0 3.77775e-007 1.13317e-005 6.80491e-006 -2.20695e-031 3.18055e-015 3.97569e-015 -3.18055e-015 -1.59028e-015 -0 -0.0127725 0.00234196 9.86999e-005 2.80179e-006 6.53305e-007 6.21096e-007 -3.18055e-015 -1.59028e-015 -0 -0.0160836 0.00302794 0.000865156 -2.10426e-006 -5.22033e-006 1.05861e-005 -3.18055e-015 -1.59028e-015 -0 -0.0125565 0.00313588 0.00283627 -3.18055e-015 -3.18055e-015 7.95139e-016 -3.18055e-015 -1.59028e-015 -0 3.77775e-007 1.13317e-005 6.80491e-006 -2.20695e-031 3.18055e-015 3.97569e-015 -21.6393 2.80999 6.48942 -122.351 9.02907 -8.43975 100.126 -65.0004 91.0834 38.0717 -12.2237 -42.7983 6.74053e-007 8.50087e-006 -4.56683e-006 -0 -1.59028e-015 -0 -1.82011e-006 -2.49811e-006 5.25252e-006 6.74053e-007 8.50087e-006 -4.56683e-006 0.0130081 0.00232631 -7.94115e-005 3.18055e-015 0 -3.18055e-015 6.74053e-007 8.50087e-006 -4.56683e-006 0.0163568 0.00304333 -0.000869949 -6.36111e-015 -6.36111e-015 4.77083e-015 6.74053e-007 8.50087e-006 -4.56683e-006 0.0145695 0.00367831 -0.00325375 -9.54166e-015 4.77083e-015 -6.36111e-015 6.74053e-007 8.50087e-006 -4.56683e-006 -0 -1.59028e-015 -0 -1.82011e-006 -2.49811e-006 5.25252e-006 -14.282 -29.6948 -9.67415 158.907 65.3646 -164.593 10.7757 7.44173 -0.957293 1.15393e-007 8.64813e-007 8.3562e-007 16.8325 -36.5304 15.8815 171.738 42.1925 -172.102 15.1013 -0.838363 15.1103 8.41671e-007 1.10798e-007 4.20629e-008 
